<?xml version="1.0" standalone="no"?>
<!DOCTYPE svg PUBLIC "-//W3C//DTD SVG 20010904//EN"
 "http://www.w3.org/TR/2001/REC-SVG-20010904/DTD/svg10.dtd">
<svg version="1.0" xmlns="http://www.w3.org/2000/svg"
 width="930.000000pt" height="960.000000pt" viewBox="0 0 930.000000 960.000000"
 preserveAspectRatio="xMidYMid meet">

<g transform="translate(0.000000,960.000000) scale(0.100000,-0.100000)"
fill="#000000" stroke="none">
<path d="M0 4800 l0 -4800 4650 0 4650 0 0 4800 0 4800 -4650 0 -4650 0 0
-4800z m4253 4210 c45 0 62 -5 78 -21 14 -14 29 -19 46 -16 14 3 41 -2 60 -9
19 -8 38 -12 43 -9 10 6 70 -23 81 -39 4 -5 19 -6 33 -2 25 6 55 -5 84 -31 11
-11 10 -18 -10 -45 -22 -31 -23 -32 -26 -10 -4 28 -8 28 -48 -3 -22 -17 -34
-21 -37 -12 -7 21 -37 -12 -37 -40 0 -21 -2 -23 -15 -13 -8 7 -12 16 -9 21 3
5 0 9 -5 9 -6 0 -11 -5 -11 -10 0 -6 -6 -10 -12 -9 -31 4 -49 -3 -72 -26 -31
-30 -42 -31 -49 -4 -7 27 -43 18 -74 -19 -13 -15 -27 -27 -33 -27 -13 0 -41
-41 -33 -49 7 -7 -20 -9 -86 -6 -40 2 -111 -23 -119 -42 -2 -4 -19 -10 -39
-14 -19 -4 -37 -13 -40 -21 -4 -11 -15 -13 -44 -8 -32 6 -39 4 -39 -9 0 -10 9
-16 25 -16 14 0 25 -4 25 -9 0 -5 8 -12 18 -14 9 -3 -12 -5 -47 -6 -59 -1 -63
0 -58 19 3 11 1 20 -5 20 -5 0 -12 -9 -15 -20 -6 -24 -19 -26 -27 -5 -3 8 -11
15 -18 15 -17 1 -58 35 -58 49 0 6 6 11 14 11 24 0 29 37 9 67 -17 27 -18 27
-21 5 -2 -14 -10 -22 -22 -22 -13 0 -17 5 -13 19 3 10 0 22 -6 25 -12 8 -15
37 -3 35 19 -3 33 2 27 11 -3 6 -1 10 4 10 6 0 11 7 11 16 0 10 -6 14 -15 10
-8 -3 -15 -1 -15 4 0 14 28 38 53 45 12 4 31 15 42 25 11 9 36 23 55 30 19 7
42 19 51 27 8 7 19 13 22 13 4 0 34 13 67 29 33 16 60 27 60 24 0 -3 6 0 14 6
19 16 115 51 139 51 12 0 16 4 11 13 -4 6 2 4 13 -5 14 -13 37 -18 76 -18z
m636 -211 c-15 -9 -32 -2 -24 11 3 5 13 6 21 3 12 -4 13 -8 3 -14z m-209 -7
c0 -14 -11 -21 -26 -15 -21 8 -17 23 6 23 11 0 20 -4 20 -8z m70 -22 c13 -9
13 -11 0 -19 -17 -12 -30 -5 -30 15 0 16 9 18 30 4z m-1120 -10 c-19 -13 -30
-13 -30 0 0 6 10 10 23 10 18 0 19 -2 7 -10z m-29 -32 c-1 -5 -1 -17 -1 -28 0
-11 -5 -20 -11 -20 -6 0 -8 9 -4 20 5 16 2 20 -17 20 -19 0 -20 2 -8 10 16 11
41 9 41 -2z m1027 0 c15 -15 15 -28 1 -28 -5 0 -7 5 -4 10 3 6 -3 10 -14 10
-12 0 -21 5 -21 10 0 14 23 13 38 -2z m53 -4 c20 -24 21 -54 3 -61 -19 -7 -34
13 -29 39 2 10 0 18 -6 18 -5 0 -9 5 -9 10 0 16 26 12 41 -6z m177 10 c12 -4
22 -11 22 -18 0 -6 15 -18 33 -27 54 -26 41 -44 -31 -44 -60 0 -78 -7 -48 -18
8 -3 39 -3 70 0 39 4 56 2 56 -6 0 -6 9 -11 20 -11 11 0 20 5 20 10 0 19 45
10 60 -12 8 -13 14 -27 15 -32 0 -5 6 -11 14 -14 10 -3 12 0 8 12 -4 10 -3 15
3 11 6 -3 10 0 11 7 0 10 2 10 6 1 2 -7 9 -13 15 -13 6 0 8 7 4 15 -3 9 0 15
8 15 7 0 19 -7 26 -15 7 -8 20 -15 30 -15 10 0 23 -7 30 -15 19 -22 -5 -45
-46 -45 -19 0 -34 -4 -34 -10 0 -5 9 -10 19 -10 11 0 27 -3 37 -7 13 -5 15 -3
9 7 -6 10 2 12 39 8 36 -4 52 -13 76 -39 16 -19 30 -40 30 -46 0 -9 15 -13 43
-13 l43 0 -4 -42 c-3 -24 -9 -46 -14 -49 -6 -4 3 -10 18 -13 16 -4 32 -12 35
-18 4 -6 25 -10 47 -10 27 1 46 -5 58 -19 21 -23 18 -27 -29 -33 -33 -4 -38
-2 -43 20 -9 35 -22 30 -20 -8 1 -26 -3 -33 -24 -38 -25 -6 -100 14 -110 30
-3 5 -30 9 -60 10 -76 2 -80 2 -80 -12 0 -7 -7 -22 -16 -33 -14 -19 -15 -19
-20 3 -7 24 -42 30 -61 11 -7 -7 -28 -9 -55 -5 -121 18 -130 18 -163 0 -30
-16 -35 -16 -73 -1 -22 9 -42 13 -46 10 -3 -3 -15 2 -26 12 -11 10 -20 13 -20
7 0 -18 -18 -14 -37 8 -10 11 -25 20 -35 20 -12 0 -18 8 -18 23 0 16 -3 18 -9
8 -7 -11 -11 -10 -20 7 -8 16 -8 23 2 29 21 13 39 65 27 77 -26 26 3 50 46 35
15 -5 24 -2 32 12 9 14 9 19 1 19 -8 0 -7 6 2 17 11 13 11 17 2 20 -23 8 -14
42 12 49 14 3 25 13 25 20 0 8 -11 20 -25 26 -27 12 -34 38 -10 38 8 0 15 7
15 15 0 9 7 18 15 21 10 4 13 13 10 25 -4 13 -1 19 9 19 9 0 16 5 16 10 0 11
24 13 58 4z m-118 -34 c0 -5 -7 -7 -15 -4 -8 4 -12 10 -9 15 6 11 24 2 24 -11z
m-130 6 c0 -3 -4 -8 -10 -11 -5 -3 -10 -1 -10 4 0 6 5 11 10 11 6 0 10 -2 10
-4z m-510 -432 c0 -3 -7 -12 -15 -21 -20 -19 -32 -9 -15 12 12 15 30 20 30 9z
m275 -105 c7 -7 5 -13 -5 -19 -21 -14 -58 -12 -63 3 -3 9 -7 9 -17 0 -8 -7
-20 -9 -35 -3 -26 10 -35 4 -35 -22 0 -11 -7 -18 -20 -18 -11 0 -52 -16 -90
-36 -64 -34 -100 -39 -100 -15 0 5 9 13 21 16 15 5 20 13 16 30 -3 19 2 26 24
36 16 6 40 8 54 5 16 -4 31 0 45 11 11 10 30 21 43 24 33 8 150 0 162 -12z
m861 -510 c10 -12 35 -29 54 -40 29 -15 72 -56 145 -139 8 -9 20 -27 27 -41
20 -38 58 -81 103 -114 22 -16 43 -34 47 -39 3 -5 20 -9 37 -8 17 0 33 -4 36
-9 4 -5 13 -9 21 -9 23 0 81 -42 98 -71 20 -34 20 -39 1 -39 -9 0 -18 -7 -21
-15 -8 -19 -38 -19 -69 1 -22 15 -26 14 -46 -5 -15 -14 -30 -19 -46 -15 -14 4
-23 2 -23 -6 0 -6 -5 -8 -10 -5 -6 4 -8 10 -5 15 6 9 -25 30 -44 30 -6 0 -11
-6 -11 -14 0 -25 -154 -37 -277 -22 -38 5 -67 2 -100 -10 -55 -18 -193 -28
-193 -13 0 5 13 12 30 15 16 4 28 9 26 13 -3 4 8 12 24 19 58 26 140 132 127
165 -3 8 -20 18 -37 22 -25 6 -29 9 -19 21 8 10 8 14 0 14 -13 0 -14 39 -2 59
5 8 5 26 -1 44 -8 21 -8 31 1 36 7 5 11 12 10 17 -5 26 4 41 33 59 18 10 27
20 20 23 -19 6 -14 29 8 35 12 3 20 14 20 26 0 27 12 27 36 0z m-516 -465 c0
-12 -28 -32 -51 -36 -13 -1 -25 -11 -27 -20 -3 -15 4 -18 37 -18 23 0 41 -4
41 -10 0 -5 -9 -10 -21 -10 -32 0 -59 -19 -59 -40 0 -11 -6 -20 -12 -20 -7 0
-29 -18 -48 -40 -19 -22 -40 -40 -46 -40 -6 0 -17 -7 -24 -15 -17 -21 -30 -19
-30 5 0 11 -4 20 -10 20 -5 0 -10 -7 -10 -15 0 -8 -8 -19 -18 -24 -10 -5 -24
-25 -32 -45 -12 -33 -17 -36 -52 -36 -27 0 -38 4 -38 15 0 13 18 20 42 16 4 0
6 41 6 91 -1 104 -3 102 93 111 63 5 110 28 125 61 5 11 19 22 32 24 12 2 22
10 22 18 0 10 12 14 40 14 22 0 40 -3 40 -6z m607 -949 c2 -1 -20 -2 -47 -3
-32 0 -48 3 -44 9 3 6 15 9 25 6 11 -3 19 -1 19 4 0 8 31 -3 47 -16z m339 16
c-8 -13 -66 -19 -73 -8 -3 6 -2 7 3 4 6 -3 16 -2 24 4 19 11 53 12 46 0z
m-116 -31 c0 -5 8 -10 18 -11 10 0 12 -3 5 -6 -7 -2 -23 3 -35 11 -18 13 -19
16 -5 16 9 0 17 -4 17 -10z"/>
<path d="M4058 8963 c7 -3 16 -2 19 1 4 3 -2 6 -13 5 -11 0 -14 -3 -6 -6z"/>
<path d="M3815 8840 c-4 -6 15 -10 49 -10 31 0 56 5 56 10 0 6 -22 10 -49 10
-28 0 -53 -4 -56 -10z"/>
<path d="M3785 8810 c-4 -6 3 -10 14 -10 25 0 27 6 6 13 -8 4 -17 2 -20 -3z"/>
<path d="M4018 8713 c6 -2 18 -2 25 0 6 3 1 5 -13 5 -14 0 -19 -2 -12 -5z"/>
<path d="M3973 8663 c-7 -2 -13 -9 -13 -14 0 -15 53 -6 58 9 4 12 -21 15 -45
5z"/>
<path d="M4780 8656 c0 -9 7 -16 16 -16 17 0 14 22 -4 28 -7 2 -12 -3 -12 -12z"/>
<path d="M4796 8515 c-9 -26 -7 -32 5 -12 6 10 9 21 6 23 -2 3 -7 -2 -11 -11z"/>
<path d="M5040 8504 c0 -8 5 -12 10 -9 6 3 10 10 10 16 0 5 -4 9 -10 9 -5 0
-10 -7 -10 -16z"/>
<path d="M4780 8470 c0 -5 5 -10 10 -10 6 0 10 5 10 10 0 6 -4 10 -10 10 -5 0
-10 -4 -10 -10z"/>
<path d="M5168 8473 c6 -2 18 -2 25 0 6 3 1 5 -13 5 -14 0 -19 -2 -12 -5z"/>
<path d="M5392 8388 c7 -19 38 -22 38 -4 0 10 -9 16 -21 16 -12 0 -19 -5 -17
-12z"/>
<path d="M4090 8120 c-12 -8 -11 -10 7 -10 12 0 25 5 28 10 8 13 -15 13 -35 0z"/>
<path d="M5150 7390 c0 -6 7 -13 15 -16 8 -4 15 -12 15 -20 0 -8 7 -14 16 -14
11 0 14 5 10 16 -3 9 -6 22 -6 30 0 8 -10 14 -25 14 -14 0 -25 -5 -25 -10z"/>
</g>
</svg>
